<svg xmlns="http://www.w3.org/2000/svg">
    <symbol id="Kingston_logo" viewBox="0 0 160 160">   
        <path d="M45.9613 81.7293V88.0208C45.9613 90.3759 46.235 91.4551 48.6541 91.4551V91.6796H39.3254V91.4551C42.096 91.4551 41.7676 88.5324 41.7676 86.1788V79.4667C41.7676 77.1132 42.262 72.4585 39.4899 72.4585V72.2315H48.4261V72.4584C46.1259 72.4584 45.9613 73.8364 45.9613 76.1884V81.1208L46.361 81.1422C50.0963 77.4732 50.5161 76.825 50.7707 76.4177C52.6407 73.4254 50.874 72.5384 49.8411 72.5384V72.2046H57.4515V72.5383C56.1529 72.5383 53.7065 74.5288 52.2619 75.6902L46.6557 81.2379C54.3069 81.5952 54.1423 85.5237 54.9979 88.4534C55.4803 90.105 55.7926 91.1327 57.6272 91.4828V91.6798C57.6272 91.6798 50.8108 91.6869 50.8108 91.6798C49.7666 85.9842 49.2723 81.2423 45.9613 81.7294M64.0154 82.5333C64.0154 85.2245 64.4568 85.9825 66.0483 85.9825V86.1787H58.1066V85.9825C59.7279 85.9825 59.8547 84.1308 59.8547 82.5333V75.4434C59.8547 73.5713 59.4534 72.5507 57.8321 72.5507V72.2123H64.0154V82.5334M61.8699 67C63.078 67 64.0821 67.9874 64.0821 69.1781C64.0821 70.3689 63.078 71.357 61.8698 71.357C60.6604 71.357 59.6572 70.3688 59.6572 69.1781C59.6572 67.9875 60.6604 67 61.8699 67ZM72.3056 73.9389C73.6941 71.9736 74.6339 71.9286 76.2262 71.9286C80.0217 71.9286 80.3412 74.7911 80.3412 77.2167L80.3524 82.5333C80.3524 85.1447 80.6269 85.9825 82.1021 85.9825V86.1787H74.5462V85.9825C75.8706 85.9825 75.8706 84.8464 75.8706 82.5333V77.129C75.8706 75.1816 76.088 72.7357 74.5744 72.7357C72.8407 72.7357 72.7757 74.1003 72.3055 74.8836V82.5332C72.3055 84.8195 72.4426 85.9824 73.7702 85.9824V86.1786H66.3508V85.9824C67.8228 85.9824 68.0724 84.7642 68.0724 82.5332V75.4433C68.0724 73.4907 67.7144 72.5475 66.0916 72.5475V72.2123H72.3054L72.3056 73.9389ZM111.584 72.2123H114.497L113.999 73.1888H111.584V81.576C111.584 85.7944 114.064 85.4427 115.099 84.5249L115.155 84.7889C112.932 86.5542 111.423 86.1763 110.853 86.1763C108.702 86.1763 107.354 84.683 107.354 82.6773V73.1888H104.954V73.074C106.824 72.4347 109.906 69.968 111.335 67.9187H111.584V72.2123Z" fill="#7E7E7E"/>
        <path d="M113.622 79.3394C113.622 75.9852 116.672 71.9287 120.428 71.9287C123.855 71.9287 127.13 75.5242 127.13 79.0961C127.13 83.3028 123.446 86.4247 120.428 86.4247C116.76 86.4245 113.622 83.1934 113.622 79.3394ZM122.828 78.9599C122.828 74.7184 122.675 72.2123 120.428 72.2123C117.964 72.2123 118.141 75.4435 118.141 78.9599C118.141 83.2023 118.133 86.1676 120.428 86.1676C123.005 86.1676 122.828 83.2023 122.828 78.9599Z" fill="#7E7E7E"/>
        <path d="M132.403 73.9388C133.792 71.9736 134.731 71.9286 136.32 71.9286C140.116 71.9286 140.437 74.7911 140.437 77.2166L140.445 82.5333C140.445 85.1447 140.726 85.9825 142.195 85.9825V86.1786H134.642V85.9825C135.966 85.9825 135.966 84.8463 135.966 82.5333V77.1289C135.966 75.1815 136.183 72.7356 134.666 72.7356C132.941 72.7356 132.876 74.1003 132.403 74.8836V82.5332C132.403 84.8195 132.539 85.9824 133.864 85.9824V86.1785H126.447V85.9824C127.924 85.9824 128.165 84.7641 128.165 82.5332V75.4432C128.165 73.4906 127.812 72.5475 126.19 72.5475V72.2122H132.403V73.9389M89.3689 84.0448C88.9371 84.6022 88.3256 86.4134 86.0367 86.4134C83.3855 86.4134 81.3838 84.0338 81.3838 79.2839C81.3838 75.4243 83.9032 71.9949 86.8014 71.9949C88.8551 71.9949 89.6466 73.8013 89.6466 73.8013V72.3285H95.9809V72.6304C95.9809 72.6304 93.8996 72.2167 93.8996 75.1491V85.9082C93.6964 88.8301 92.4051 90.8342 87.2732 92.2596L87.3093 91.9229C90.2583 89.8058 89.6251 86.7423 89.369 84.0448H89.3689ZM89.7358 78.6254C89.7358 75.4686 89.4934 72.3902 87.4323 72.3902C85.9933 72.3902 85.624 74.8726 85.624 79.3695C85.624 83.1444 85.9459 85.6696 87.4042 85.6696C88.6905 85.6696 89.7358 82.8083 89.7358 79.7631V78.6254Z" fill="#7E7E7E"/>
        <path d="M94.6302 81.7229H96.6567C96.3838 86.0932 99.4722 86.0981 100.219 86.0981C101.559 86.0981 102.779 85.0576 102.779 83.9017C102.779 80.3467 95.2599 81.8661 95.2599 76.4665C95.2599 74.0133 97.1525 71.9672 99.9857 71.9672C104.584 71.9672 105.122 74.6845 105.122 75.6307H103.405C103.565 74.9551 103.285 72.1666 100.363 72.1666C97.9713 72.1666 98.0675 74.0883 98.0675 74.2181C98.0675 77.665 106.198 76.4176 106.198 81.4978C106.198 84.0614 104.007 86.2 101.061 86.3599C95.972 86.6341 94.6302 83.0044 94.6302 81.7229ZM139.001 71.0304C139.001 70.2389 139.659 69.5899 140.47 69.5899C141.28 69.5899 141.938 70.2389 141.938 71.0304C141.938 71.8329 141.28 72.4812 140.469 72.4812C139.659 72.4812 139.001 71.8329 139.001 71.0305L139.001 71.0304ZM141.705 71.0304C141.705 70.33 141.184 69.7797 140.47 69.7797C139.755 69.7797 139.234 70.3301 139.234 71.0304C139.234 71.7411 139.755 72.2898 140.47 72.2898C141.184 72.2898 141.705 71.7411 141.705 71.0304ZM141.2 71.8398H140.959L140.494 71.0977H140.124V71.8398H139.923V70.2264H140.638C141.079 70.2264 141.224 70.3876 141.224 70.6532C141.224 70.9712 140.999 71.0882 140.71 71.0976L141.2 71.8398ZM140.437 70.9402C140.67 70.9402 141.007 70.9789 141.007 70.6517C141.007 70.3978 140.799 70.367 140.59 70.367H140.124V70.9401L140.437 70.9402ZM58.5881 87.2878H62.1752V87.8049H60.6854V91.6416H60.0762V87.8049H58.5881V87.2878ZM66.7242 91.6415V87.2877H69.9466V87.8181H67.3076V89.1408H69.7475V89.646H67.3076V91.1211H69.9922V91.6413L66.7242 91.6415ZM76.5841 87.1685C77.1436 87.1685 77.5778 87.3139 77.8868 87.6031C78.1959 87.8941 78.3676 88.2262 78.4003 88.5946H77.8169C77.751 88.3125 77.6196 88.0919 77.422 87.9249C77.2239 87.7629 76.9484 87.6817 76.5914 87.6817C76.154 87.6817 75.8034 87.8325 75.5351 88.1324C75.2677 88.435 75.1323 88.8967 75.1323 89.5188C75.1323 90.0281 75.2535 90.4423 75.4958 90.7601C75.7389 91.077 76.0975 91.236 76.5776 91.236C77.0199 91.236 77.3556 91.0684 77.5864 90.7339C77.7085 90.5576 77.8 90.3268 77.8593 90.0399H78.443C78.3916 90.4984 78.2173 90.8827 77.9254 91.1934C77.5762 91.5666 77.1028 91.7541 76.5055 91.7541C75.991 91.7541 75.5601 91.6007 75.2109 91.2953C74.7526 90.89 74.5208 90.2628 74.5208 89.4184C74.5208 88.7756 74.6959 88.2492 75.04 87.8373C75.4148 87.3921 75.926 87.1685 76.5841 87.1685ZM83.1295 91.6415V87.2877H83.7354V89.0862H86.0333V87.2877H86.6387V91.6415H86.0333V89.6034H83.7354V91.6416L83.1295 91.6415ZM94.0964 91.6415V87.2877H94.8029L97.0324 90.8129V87.2877H97.6023V91.6415H96.9346L94.6681 88.1146V91.6415H94.0964ZM103.742 90.7449C103.493 90.4143 103.373 90.0066 103.373 89.5249C103.373 88.9226 103.517 88.4648 103.806 88.1565C104.095 87.8467 104.472 87.6932 104.922 87.6932C105.395 87.6932 105.772 87.8489 106.037 88.1609C106.31 88.4717 106.447 88.8836 106.447 89.3968C106.447 89.8813 106.326 90.3108 106.094 90.6823C105.861 91.0539 105.476 91.2406 104.954 91.2406C104.392 91.2407 103.991 91.0769 103.742 90.7449ZM103.204 87.9741C102.907 88.3932 102.755 88.8984 102.755 89.4864C102.755 90.138 102.931 90.6785 103.276 91.1048C103.662 91.5451 104.2 91.7696 104.882 91.7696C105.604 91.7696 106.166 91.5167 106.559 91.0091C106.896 90.5798 107.065 90.0398 107.065 89.3893C107.065 88.7869 106.92 88.296 106.623 87.9093C106.246 87.416 105.668 87.1685 104.89 87.1685C104.143 87.1685 103.582 87.4363 103.204 87.9741ZM112.218 91.6415V87.2877H112.811V91.1212H115.051V91.6415H112.218ZM120.717 90.7449C120.468 90.4143 120.34 90.0066 120.34 89.5249C120.34 88.9226 120.492 88.4648 120.773 88.1565C121.07 87.8467 121.439 87.6932 121.897 87.6932C122.371 87.6932 122.74 87.8489 123.013 88.1609C123.286 88.4717 123.422 88.8836 123.422 89.3968C123.422 89.8813 123.302 90.3108 123.069 90.6823C122.828 91.0539 122.451 91.2406 121.921 91.2406C121.367 91.2407 120.966 91.0769 120.717 90.7449ZM120.171 87.9741C119.874 88.3932 119.722 88.8984 119.722 89.4864C119.722 90.138 119.898 90.6785 120.243 91.1048C120.637 91.5451 121.166 91.7696 121.849 91.7696C122.579 91.7696 123.133 91.5167 123.534 91.0091C123.863 90.5798 124.032 90.0398 124.032 89.3893C124.032 88.7869 123.887 88.296 123.59 87.9093C123.221 87.416 122.643 87.1685 121.865 87.1685C121.11 87.1685 120.549 87.4363 120.171 87.9741ZM131.095 87.173C131.512 87.173 131.874 87.2539 132.17 87.4125C132.612 87.6402 132.885 88.0363 132.981 88.6063H132.387C132.315 88.2878 132.162 88.056 131.938 87.9113C131.713 87.7659 131.424 87.6932 131.079 87.6932C130.67 87.6932 130.324 87.8442 130.043 88.1453C129.763 88.4481 129.626 88.898 129.626 89.498C129.626 90.0143 129.738 90.438 129.971 90.7621C130.204 91.0887 130.581 91.2506 131.103 91.2506C131.504 91.2506 131.833 91.1353 132.09 90.9067C132.355 90.6792 132.483 90.3108 132.491 89.7992H131.111V89.3113H133.053V91.6412H132.668L132.523 91.0791C132.315 91.2987 132.138 91.4521 131.985 91.5359C131.721 91.6838 131.384 91.7557 130.982 91.7557C130.453 91.7557 130.003 91.5889 129.626 91.2551C129.216 90.8355 129.016 90.2614 129.016 89.5294C129.016 88.8004 129.208 88.221 129.61 87.79C129.995 87.3788 130.485 87.173 131.095 87.173ZM139.619 89.8864L137.949 87.2878H138.648L139.916 89.3798L141.184 87.2878H141.891L140.221 89.8863V91.6416H139.619V89.8864" fill="#7E7E7E"/>
        <path d="M17.9992 70.9402C17.9118 70.5908 17.7946 69.7559 17.7946 69.7559C17.6317 69.0761 17.9736 68.8911 17.9736 68.8911C17.9736 68.8911 21.0795 67.2944 26.7942 67.1543C28.5158 67.1108 31.504 67.0603 34.4904 68.0572C34.6912 68.1386 34.7392 68.2952 34.8186 68.587C34.9182 68.9513 34.9632 69.2739 35.0097 69.5981C35.1181 70.3524 35.1463 70.7856 35.1236 71.2046C35.1067 71.5043 34.7681 72.0339 34.7545 72.1834C34.7062 72.6973 34.9004 74.7029 34.8266 75.6826C34.7527 76.6643 34.3668 79.953 33.569 82.1099C32.7269 84.385 31.2735 84.0136 30.536 84.0136L34.0226 91.7215L17 91.7079L19.5178 78.281C19.5178 78.281 19.5563 77.9411 19.2496 77.752C18.574 77.3361 18.0306 76.6762 18.0306 76.6762C18.0306 76.6762 17.6864 76.2936 17.2992 74.0902C17.2992 74.0902 16.9719 72.0199 17.3355 71.5667C17.504 71.3572 17.9094 71.1531 18.0304 71.0822L17.9992 70.9402Z" fill="#1E1E1E"/>
        <path d="M28.0913 78.2973C28.0913 78.2973 30.3788 77.8808 32.7754 78.4981C32.7754 78.4981 33.2889 78.9172 33.2344 79.261C33.2344 79.261 29.5473 79.4595 28.0913 78.2973ZM28.1716 82.2272C28.1716 82.2272 28.8168 79.4736 33.1198 79.8556C33.1198 79.8556 33.4175 80.0918 32.5837 80.914C31.5925 81.8889 29.7777 82.6321 28.1716 82.2272ZM31.6124 74.4234L30.5312 74.1698C30.5312 74.1698 30.2545 74.1628 30.1813 74.309C30.1068 74.4544 29.8923 75.2775 29.8923 75.2775C29.8923 75.2775 29.8786 75.3391 29.9341 75.3953C29.9895 75.4492 32.6027 77.3108 32.6027 77.3108C32.6027 77.3108 30.402 77.1063 29.7197 77.2697C29.0383 77.4334 27.6787 78.1417 26.7943 78.2871C25.909 78.431 22.6512 78.7765 22.4482 78.7947L21.1575 73.2852C21.1575 73.2852 20.9859 71.9285 19.5651 71.9712C18.4961 72.0036 18.329 72.2771 18.2744 72.3951C18.1694 72.6204 18.2744 72.8195 18.2744 72.8195L21.8028 78.71C21.8028 78.71 19.4311 77.5732 18.4897 76.3369C17.9736 75.6594 17.5 72.3952 17.8443 71.844C18.1518 71.3509 20.0819 70.954 20.8999 71.0393C21.2972 71.1154 21.6493 71.4837 21.8888 71.7605C21.9627 71.8443 22.0043 71.7975 22.0613 71.8869C22.0613 71.8869 21.8486 70.6269 21.0284 70.5731C19.8438 70.494 18.5764 70.9128 18.5764 70.9128C18.5764 70.9128 18.4808 70.9019 18.4396 70.7723C18.3828 70.5897 18.2543 69.4915 18.2543 69.4915C18.2543 69.4915 18.3049 69.2653 18.4897 69.1736C18.4897 69.1736 21.822 67.6296 26.8368 67.6485C27.4282 67.6503 32.1363 67.5757 34.3669 68.5388C34.5634 68.692 34.4375 69.4337 34.3379 69.8504C34.2609 70.1698 33.9512 70.2479 33.9512 70.2479C33.6076 70.3317 33.4639 70.6148 33.4639 70.6148C33.4639 70.6148 33.943 75.0104 33.98 75.1931C34.0168 75.3742 33.851 75.4042 33.3886 75.4349C33.186 75.4484 30.7953 75.4895 30.7953 75.4895C30.7953 75.4895 30.3025 75.4406 30.3225 75.1497C30.337 74.9378 30.4083 74.5425 30.5376 74.5425H30.9967C30.9967 74.5425 31.9654 74.5404 31.6124 74.4234ZM27.3104 69.0184C25.1595 69.9079 23.3945 71.7602 23.3945 71.7602C23.5799 71.8328 23.9972 71.7602 23.9972 71.7602C25.9339 70.1061 27.56 69.454 27.56 69.454C28.9365 69.4256 31.3557 70.2273 31.484 70.1916C31.549 70.1727 31.5593 69.9054 31.4471 69.8684C31.1878 69.7837 30.6614 69.567 29.6773 69.3432C27.7857 68.9142 27.3104 69.0184 27.3104 69.0184ZM25.6329 71.7167C26.2277 71.9761 27.2704 72.0968 28.2263 72.1966C29.3331 72.3096 30.4944 71.7602 30.4944 71.7602C30.4767 71.5966 30.0883 70.6715 29.7384 70.5807C29.3885 70.4891 28.7304 70.5744 27.9566 70.7563C27.182 70.9381 25.6329 71.7167 25.6329 71.7167ZM34.4528 70.4596C34.6632 70.492 34.651 70.5142 34.7861 70.6233C34.9192 70.7332 34.8864 71.0084 34.7972 71.0962C34.7083 71.184 34.6254 71.0115 33.9482 71.0313C33.9482 71.0313 34.2555 70.4303 34.4528 70.4596ZM20.0927 78.3179L21.6737 79.3875L24.2982 91.228H17.6294L20.0927 78.3179ZM23.9386 84.1255C23.9386 84.1255 27.1812 86.128 27.6973 86.8484L28.0423 91.2557H25.6828L23.9386 84.1255ZM29.4624 88.1614C29.4624 88.1614 31.3557 89.8983 31.9151 91.2558H28.7311L29.4624 88.1614Z" fill="#7E7E7E"/>
        <path d="M32.1388 70.8208C32.1388 70.8208 32.3458 70.7607 32.3932 70.9789C32.6285 72.0455 32.9425 74.373 32.9425 74.5492C32.9425 74.8853 32.5837 74.6029 32.5837 74.6029L32.1389 70.8208M25.3217 67.6949C25.3217 67.6949 25.3955 67.6729 25.5304 67.6767C25.5672 67.6774 26.5729 69.3574 26.5729 69.3574C26.5489 69.3758 26.2061 69.5647 26.149 69.6019L25.3217 67.6949ZM21.1575 73.2851C21.1575 73.2851 20.7917 72.2122 21.531 72.044C22.2708 71.8756 23.2373 71.7633 24.3745 71.8202C24.3745 71.8202 22.498 72.1744 21.929 72.3999C21.3606 72.6234 21.1575 73.2851 21.1575 73.2851Z" fill="#FFFEFF"/>
    </symbol>
</svg>