<svg xmlns="http://www.w3.org/2000/svg">
    <symbol id="Micron_Technology_logo" viewBox="0 0 160 160">
        <g clip-path="url(#clip0_184_882)">
            <mask id="mask0_184_882" style="mask-type:luminance" maskUnits="userSpaceOnUse" x="9" y="60" width="142" height="40">
                <path d="M9.98779 60.9689V99.6158H150.029V60.9689" fill="white"/>
            </mask>
            <g mask="url(#mask0_184_882)">
                <mask id="mask1_184_882" style="mask-type:luminance" maskUnits="userSpaceOnUse" x="9" y="61" width="141" height="39">
                    <path d="M9.99976 61.0002H150V99.5811H9.99976V61.0002Z" fill="white"/>
                </mask>
                <g mask="url(#mask1_184_882)">
                    <mask id="mask2_184_882" style="mask-type:luminance" maskUnits="userSpaceOnUse" x="-48" y="9" width="735" height="951">
                        <path d="M-47.5839 9.06693H686.606V959.195H-47.5839V9.06693Z" fill="white"/>
                    </mask>
                    <g mask="url(#mask2_184_882)">
                        <path d="M76.8637 91.5096C70.4827 91.5096 64.7567 87.8854 64.7567 82.8181C64.7567 77.7483 70.4827 74.1206 76.9092 74.1206C79.7032 74.1206 82.3125 74.826 85.1497 76.4083L83.1499 78.978C81.3312 78.0986 79.1898 77.572 76.9092 77.572C74.2076 77.572 71.0885 79.0847 71.0885 82.8181C71.0885 86.549 74.162 88.0606 76.9092 88.0606C79.1898 88.0606 81.378 87.6035 83.2398 86.7925L85.2433 89.5038C82.8691 90.773 79.9816 91.5096 76.8637 91.5096Z" fill="#7E7E7E"/>
                        <path d="M113.313 91.4435C119.737 91.4435 125.465 87.8181 125.465 82.752C125.465 77.6822 119.737 74.0545 113.313 74.0545C106.886 74.0545 101.158 77.6822 101.158 82.752C101.158 87.8181 106.886 91.4435 113.313 91.4435ZM119.133 82.752C119.133 86.4829 116.014 87.9945 113.313 87.9945C110.61 87.9945 107.492 86.4829 107.492 82.752C107.492 79.0175 110.61 77.5059 113.313 77.5059C116.014 77.5059 119.133 79.0175 119.133 82.752Z" fill="#7E7E7E"/>
                        <path d="M128.052 91.0238H134.054V80.6732C134.054 79.2756 135.139 77.6309 137.082 77.6201C138.439 77.6309 139.74 78.5594 139.74 79.7375L139.728 91.0238H145.746V79.4171C145.746 76.3604 142.468 73.8088 138.558 73.8088C138.52 73.8088 138.483 73.8135 138.445 73.8147C138.406 73.8135 138.369 73.8088 138.332 73.8088C136.716 73.8088 135.183 74.2802 133.93 75.0696C133.919 75.0252 133.582 73.9155 128.052 73.9155V91.0238Z" fill="#7E7E7E"/>
                        <path d="M55.9918 91.0238H61.8712V74.4793H55.9918V91.0238Z" fill="#7E7E7E"/>
                        <path d="M88.047 91.0238H93.9289V80.9911C93.9289 79.4064 95.7896 78.1383 97.793 78.1383C98.7719 78.1383 99.6933 78.3339 100.467 78.677V74.3258C99.7736 74.2202 99.0251 74.1627 98.3641 74.1627C96.7877 74.1627 95.2066 74.6197 93.9121 75.3875C93.8161 75.192 93.0952 74.267 88.047 74.267V91.0238Z" fill="#7E7E7E"/>
                        <path d="M44.7751 84.4291L44.7739 91.0248H50.795V78.9827C49.0507 80.7822 47.0389 82.614 44.7751 84.4291Z" fill="#7E7E7E"/>
                        <path d="M50.7952 78.9829C57.4257 72.1424 60.1717 65.7843 58.0339 62.7239C55.8026 59.528 48.8698 60.8225 39.8831 65.5707C39.4813 65.7675 39.125 65.9762 38.8622 66.1574C38.428 66.4585 38.6811 66.678 39.0014 66.5616C39.3301 66.4429 39.7044 66.2989 40.1267 66.0914C46.8627 62.8967 52.1172 62.3232 54.1711 64.5534C57.301 67.9496 50.8912 79.0801 39.792 87.3133C38.3104 88.4122 36.0238 90.0209 34.5351 90.9147C34.4343 90.9771 34.3347 91.0382 34.2375 91.1006C33.8441 91.3586 33.4938 91.5985 33.2178 91.8144C32.9491 92.0232 33.0007 92.3555 33.4854 92.1467C33.7805 92.0208 34.1392 91.83 34.5207 91.5961C34.607 91.5433 34.6922 91.4953 34.7822 91.4401C36.4557 90.424 38.9402 88.7085 40.6377 87.5232C42.0977 86.5035 43.4773 85.4682 44.7753 84.4293C47.0391 82.6143 49.0509 80.7812 50.7952 78.9829Z" fill="#7E7E7E"/>
                        <path d="M21.2393 99.6157H27.2604V93.3762C28.9063 92.4033 30.5726 91.3368 32.2101 90.2199C32.5784 89.9668 32.9047 89.7149 33.1411 89.499C33.531 89.1427 33.249 88.9591 32.9479 89.1175C32.6384 89.2806 32.2725 89.5014 31.8766 89.7533C22.5757 95.7024 16.2967 97.5175 13.9778 94.3696C11.9635 91.6367 15.265 86.3535 21.2393 80.3864V94.2364C22.9344 93.6606 24.9378 92.7428 27.2592 91.452L27.258 78.6025L28.5824 81.4205C30.034 84.5324 32.6684 86.393 36.0179 86.393C39.3661 86.393 42.0005 84.5324 43.4521 81.4205L44.7766 78.6025L44.7754 81.8811C46.9299 79.7913 48.769 77.7051 50.1642 75.6873C50.3382 75.4378 50.3226 75.2278 50.2278 74.9975C49.2993 73.06 47.3234 71.7248 45.0273 71.7248C42.7563 71.7248 40.7841 73.0421 39.8388 74.9471L37.3195 80.2916C37.0592 80.8122 36.5793 81.1014 36.0179 81.1014C35.4576 81.1014 34.9754 80.8122 34.715 80.2916L32.1957 74.9471C31.7159 73.979 30.9697 73.1632 30.0544 72.5946C31.897 71.1322 33.6881 69.8258 35.4516 68.7557C35.8523 68.5121 36.181 68.2686 36.4581 68.0563C36.7305 67.8487 36.6801 67.5164 36.1942 67.7204C35.8991 67.8439 35.5164 68.0323 35.1337 68.265C33.3318 69.3567 31.4904 70.4736 29.7293 71.6768C29.5157 71.822 29.3046 71.9684 29.0934 72.1147C28.4456 71.8628 27.7426 71.7248 27.0072 71.7248C23.8161 71.7248 21.2393 74.3029 21.2393 77.494V78.2882C12.7337 85.8724 8.26859 93.3822 10.6019 96.7257C12.315 99.1778 16.3771 98.6115 21.2393 96.499V99.6157Z" fill="#7E7E7E"/>
                        <path d="M148.045 75.9214H148.263C148.512 75.9214 148.722 75.8314 148.722 75.5987C148.722 75.4331 148.602 75.2676 148.263 75.2676C148.165 75.2676 148.098 75.2748 148.045 75.282V75.9214ZM148.045 76.9663H147.744V75.0792C147.902 75.0576 148.052 75.0348 148.279 75.0348C148.565 75.0348 148.752 75.0948 148.864 75.1776C148.977 75.2604 149.037 75.3875 149.037 75.5675C149.037 75.8158 148.872 75.9658 148.669 76.027V76.0414C148.834 76.0713 148.947 76.2225 148.984 76.4996C149.03 76.7923 149.074 76.9063 149.104 76.9663H148.789C148.745 76.9063 148.699 76.7336 148.662 76.4852C148.617 76.2441 148.496 76.1541 148.255 76.1541H148.045V76.9663ZM148.361 74.5538C147.617 74.5538 147.009 75.192 147.009 75.9814C147.009 76.7851 147.617 77.4162 148.368 77.4162C149.12 77.4246 149.721 76.7851 149.721 75.9886C149.721 75.192 149.12 74.5538 148.368 74.5538H148.361ZM148.368 74.2899C149.293 74.2899 150.029 75.042 150.029 75.9814C150.029 76.9363 149.293 77.6801 148.361 77.6801C147.437 77.6801 146.686 76.9363 146.686 75.9814C146.686 75.042 147.437 74.2899 148.361 74.2899H148.368Z" fill="#7E7E7E"/>
                    </g>
                </g>
            </g>
        </g>
        <defs>
            <clipPath id="clip0_184_882">
                <rect width="140" height="38.581" fill="white" transform="translate(10 61)"/>
            </clipPath>
        </defs>
    </symbol>
</svg>
