<svg xmlns="http://www.w3.org/2000/svg">
    <symbol id="SK_Hynix_logo" viewBox="0 0 160 160">
        <g clip-path="url(#clip0_184_922)">
            <path d="M31.8268 89.6746C29.8829 88.7651 28.2871 88.031 28.2871 86.547C28.2871 85.4111 29.1967 84.5857 30.9897 84.5857C31.6498 84.5857 32.1894 84.6638 32.7479 84.7654C33.0395 84.816 33.3499 84.8583 33.6067 84.8583C35.1749 84.8583 36.0598 83.9241 36.6487 82.1499L36.891 81.4261C36.64 81.3245 34.0796 80.1988 30.7416 80.1988C25.4293 80.1988 22.6252 83.6064 22.6266 87.1402C22.6266 88.9231 23.1851 90.2156 24.0599 91.234C25.1856 92.541 26.79 93.3969 28.2915 94.1309C30.4805 95.2045 32.4549 95.998 32.4549 97.5894C32.4563 99.0023 30.997 99.8045 29.0458 99.8045C26.3722 99.8045 24.0367 98.2784 23.7393 98.0942L21.5444 102.207C21.9332 102.429 24.7606 104.222 29.4128 104.222C34.3697 104.219 38.1241 101.377 38.1241 97.0033C38.1241 92.6527 34.6454 91.0397 31.8268 89.6746Z" fill="#7E7E7E"/>
            <path d="M51.2166 91.7052L60.2078 80.6802H53.8017L46.6296 90.1951H46.5222V80.6802H41.2404L41.2433 104.036H41.5566C43.8399 104.036 46.557 102.978 46.557 99.166V93.8029H46.6644L53.9757 103.744H60.6967L51.2166 91.7052Z" fill="#7E7E7E"/>
            <path d="M60.5071 55.6612C58.6473 56.0124 55.8911 57.7009 55.9012 60.6849C55.907 63.3947 58.1236 65.0383 58.1309 68.5881C58.1412 71.2602 56.6686 73.0605 55.0758 74.0571C55.7199 74.0003 56.4249 73.9629 57.1996 73.9613C58.8272 73.9571 59.8079 74.1122 59.8688 74.1225L68.2101 63.8866C65.8934 60.418 63.1879 57.727 60.5071 55.6612Z" fill="#7E7E7E"/>
            <path d="M67.5142 83.304C68.5659 81.6691 68.698 79.0637 68.7865 76.4119C68.8865 73.9356 69.4015 72.073 72.7134 72.0614C73.446 72.0599 74.1452 72.1601 75.4102 72.1572C80.2612 72.1366 83.428 70.4657 85.398 69.369C81.3739 66.8028 75.4987 64.1814 68.2105 63.887C67.7347 65.2274 64.0413 75.498 63.7614 76.3278C63.8034 76.3772 64.4504 77.101 65.2584 78.5154C66.4509 80.4579 67.0906 82.1029 67.5142 83.304Z" fill="#7E7E7E"/>
            <path d="M49.8973 74.9149C49.4751 74.9163 49.2648 74.6365 49.2082 74.1504C49.1546 73.6687 47.067 54.5824 46.7581 51.6941C46.7131 51.272 46.6086 50.4973 46.6072 50.2217C46.6057 49.7778 46.8959 49.5457 47.2368 49.5442C48.2247 49.5401 53.6124 50.802 59.328 54.8101C57.6801 55.2729 54.7019 56.9862 54.7149 60.533C54.7265 63.6737 56.9736 65.4014 56.9852 68.5508C57.0041 73.6731 51.1158 74.912 49.8973 74.9149Z" fill="#7E7E7E"/>
            <path d="M67.9934 84.666C68.0833 84.9041 68.1675 85.1041 68.2531 85.2434C68.3851 85.4654 68.5548 85.567 68.7666 85.567C68.8986 85.5655 69.0611 85.5205 69.2424 85.4395C69.682 85.2364 87.1001 77.1287 89.7272 75.9174C90.1073 75.7348 90.8312 75.4111 91.0677 75.2718C91.3143 75.1312 91.4274 74.9264 91.4274 74.7177C91.426 74.6001 91.3925 74.4824 91.3259 74.3751C90.9966 73.8442 89.3124 72.0555 86.4952 70.1015C84.2583 71.3331 80.7651 73.2378 75.5688 73.2581C74.2951 73.261 74.0079 73.1755 73.1375 73.1784C70.6017 73.1866 69.9678 74.2722 69.875 76.4961C69.8606 76.9167 69.8519 77.481 69.8271 78.1019C69.7473 80.0894 69.5123 82.8309 67.9934 84.666Z" fill="#7E7E7E"/>
            <path d="M95.2065 104.352C93.2727 109.579 90.7819 110.255 88.6451 110.255C87.135 110.255 86.0252 109.715 85.9092 109.656L86.7157 107.21C86.7796 107.243 87.5963 107.683 88.5044 107.683C90.2017 107.683 91.2665 106.74 92.208 103.787C92.208 103.787 86.4387 91.2282 86.3705 91.0715C86.4764 91.0386 87.1669 90.8277 87.9546 90.8277C89.8216 90.8277 90.2336 91.9941 90.7138 93.1589C91.12 94.1367 93.779 100.549 93.779 100.549H93.8675L96.9473 91.0714H100.142L95.2065 104.352Z" fill="#7E7E7E"/>
            <path d="M137.456 103.724L132.991 97.2364L137.363 90.8869H133.595L130.551 95.5421C129.731 94.2553 128.958 93.0411 128.719 92.6639C128.11 91.7283 127.561 90.7839 126.17 90.8115C125.986 90.8156 125.791 90.832 125.583 90.8752C124.806 91.0175 124.167 91.351 124.07 91.4003C124.119 91.4789 126.211 94.4438 128.213 97.3277L123.814 103.724H127.579L130.637 99.0526L133.695 103.724L137.456 103.724Z" fill="#7E7E7E"/>
            <path d="M102.735 95.2409V103.745H105.928V94.9059C106.102 94.7463 107.238 93.6626 108.496 93.6626C110.138 93.6626 110.989 94.8522 110.989 96.4015V103.745H114.179V95.6022C114.179 91.7376 111.204 90.8817 109.545 90.8817C107.548 90.8817 106.128 92.1395 105.706 92.5572C105.57 92.0394 104.962 91.1632 103.568 91.1632C103.076 91.1632 102.433 91.3083 102.374 91.3243C102.471 91.8045 102.735 92.9431 102.735 95.2409Z" fill="#7E7E7E"/>
            <path d="M121.299 87.2245C121.299 88.2791 120.42 89.1336 119.33 89.1336C118.242 89.1336 117.363 88.2791 117.363 87.2245C117.363 86.1655 118.242 85.3067 119.33 85.3067C120.42 85.3067 121.299 86.1655 121.299 87.2245Z" fill="#7E7E7E"/>
            <path d="M120.912 103.727H117.747V91.0639H120.912V103.727Z" fill="#7E7E7E"/>
            <path d="M76.1788 92.5262C76.4022 92.3391 78.0299 90.8274 80.2944 90.8274C82.7721 90.8274 84.5999 92.12 84.5999 95.2693V103.746H81.2924V96.176C81.2924 94.7819 80.5236 93.7012 79.0686 93.7012C77.6846 93.7012 76.511 94.7935 76.1788 95.0677V103.746H72.8945V84.4126H73.5908C75.1648 84.4126 76.1788 85.5572 76.1788 87.0818V92.5262Z" fill="#7E7E7E"/>
        </g>
        <defs>
            <clipPath id="clip0_184_922">
                <rect width="117" height="61.7988" fill="#7E7E7E" transform="translate(21 49)"/>
            </clipPath>
        </defs>
    </symbol>
</svg>
