<svg xmlns="http://www.w3.org/2000/svg">
    <symbol id="viber" viewBox="0 0 30 30">
        <g clip-path="url(#clip0_189_975)">
            <path d="M25.8394 3.82852C25.1057 3.16361 22.1408 1.04963 15.5368 1.02091C15.5368 1.02091 7.74896 0.559642 3.95251 3.97996C1.83918 6.05608 1.09575 9.09389 1.01733 12.8602C0.938913 16.6264 0.837455 23.6846 7.76446 25.5984H7.77111L7.76668 28.5188C7.76668 28.5188 7.72237 29.7011 8.51498 29.9421C9.47373 30.2346 10.0364 29.336 10.9517 28.3673C11.4541 27.8356 12.148 27.0545 12.6707 26.4574C17.4082 26.8491 21.0518 25.9539 21.4656 25.8217C22.4222 25.5171 27.8348 24.836 28.7152 17.7783C29.6239 10.5038 28.2757 5.90247 25.8394 3.82852ZM26.6422 17.2565C25.8992 23.1494 21.509 23.5197 20.6996 23.7747C20.3554 23.8835 17.1552 24.6655 13.1311 24.4074C13.1311 24.4074 10.1325 27.9604 9.19594 28.8843C9.04974 29.0288 8.87784 29.0871 8.76309 29.0583C8.60182 29.0196 8.55751 28.8321 8.55929 28.5579C8.56194 28.1663 8.58498 23.7051 8.58498 23.7051C2.72527 22.1072 3.06686 16.0999 3.13332 12.9541C3.19977 9.80841 3.80143 7.23143 5.58867 5.49821C8.79986 2.64142 15.415 3.06831 15.415 3.06831C21.0013 3.09224 23.6782 4.74452 24.2989 5.29804C26.3599 7.03126 27.41 11.1787 26.6422 17.2548V17.2565Z"/>
            <path d="M18.2551 12.6956C18.1825 11.2569 17.4385 10.5014 16.0231 10.4288" stroke="currentColor" stroke-width="0.770333" stroke-linecap="round" stroke-linejoin="round"/>
            <path d="M20.1717 13.3265C20.2012 11.9862 19.797 10.8664 18.9591 9.96711C18.1173 9.0646 16.9521 8.56766 15.4568 8.46017" stroke="currentColor" stroke-width="0.770333" stroke-linecap="round" stroke-linejoin="round"/>
            <path d="M22.1333 14.0803C22.1153 11.7545 21.4077 9.92283 20.0106 8.58516C18.6136 7.2475 16.8761 6.57156 14.7982 6.55734" stroke="currentColor" stroke-width="0.770333" stroke-linecap="round" stroke-linejoin="round"/>
            <path d="M16.0973 17.609C16.0973 17.609 16.6223 17.6525 16.905 17.3104L17.4561 16.6294C17.722 16.2917 18.3635 16.0763 18.9917 16.4201C19.4625 16.6838 19.9196 16.9705 20.3612 17.2791C20.7781 17.5802 21.6318 18.28 21.6345 18.28C22.0412 18.6172 22.1351 19.1124 21.8582 19.6346C21.8582 19.6376 21.856 19.6429 21.856 19.6455C21.551 20.1648 21.1639 20.633 20.709 21.0328C20.7037 21.0354 20.7037 21.038 20.6988 21.0406C20.3036 21.3649 19.9153 21.5493 19.534 21.5937C19.4779 21.6033 19.4208 21.6068 19.3639 21.6041C19.1957 21.6057 19.0285 21.5804 18.8686 21.5293L18.8562 21.5114C18.2687 21.3487 17.2878 20.9414 15.6543 20.0563C14.709 19.5501 13.8091 18.9662 12.9641 18.3109C12.5406 17.9826 12.1366 17.6307 11.7542 17.2569L11.7134 17.2169L11.6726 17.1768L11.6319 17.1364C11.6181 17.1233 11.6048 17.1098 11.5911 17.0963C11.2106 16.7207 10.8523 16.3239 10.5181 15.9079C9.85092 15.0781 9.25645 14.1944 8.741 13.2661C7.83985 11.6613 7.42516 10.6987 7.25946 10.1208L7.2413 10.1086C7.18936 9.95158 7.16377 9.78726 7.16554 9.62213C7.16243 9.56623 7.16585 9.51017 7.17573 9.45503C7.22328 9.08138 7.41128 8.6999 7.73972 8.31058C7.74238 8.30579 7.74504 8.30579 7.7477 8.30057C8.15455 7.8538 8.63134 7.47363 9.16012 7.17439C9.16278 7.17439 9.1681 7.17178 9.1712 7.17178C9.70285 6.89981 10.207 6.99206 10.55 7.38936C10.5526 7.39197 11.2637 8.23051 11.569 8.63999C11.8832 9.07416 12.1751 9.52351 12.4435 9.98636C12.7935 10.603 12.5742 11.2344 12.2304 11.4946L11.5371 12.0359C11.1871 12.3136 11.2331 12.8292 11.2331 12.8292C11.2331 12.8292 12.2601 16.6468 16.0973 17.609Z"/>
        </g>
    </symbol>
</svg>